<svg id="visual" viewBox="0 0 900 600" width="900" height="600" xmlns="http://www.w3.org/2000/svg" xmlns:xlink="http://www.w3.org/1999/xlink" version="1.1"><rect x="0" y="0" width="900" height="600" fill="#0e141b"></rect><path d="M0 347L12.5 344.5C25 342 50 337 75 343.3C100 349.7 125 367.3 150 366.5C175 365.7 200 346.3 225 338.5C250 330.7 275 334.3 300 336.2C325 338 350 338 375 341.3C400 344.7 425 351.3 450 359.8C475 368.3 500 378.7 525 372C550 365.3 575 341.7 600 343.3C625 345 650 372 675 378.3C700 384.7 725 370.3 750 368.3C775 366.3 800 376.7 825 382.2C850 387.7 875 388.3 887.5 388.7L900 389L900 601L887.5 601C875 601 850 601 825 601C800 601 775 601 750 601C725 601 700 601 675 601C650 601 625 601 600 601C575 601 550 601 525 601C500 601 475 601 450 601C425 601 400 601 375 601C350 601 325 601 300 601C275 601 250 601 225 601C200 601 175 601 150 601C125 601 100 601 75 601C50 601 25 601 12.5 601L0 601Z" fill="#0e141b"></path><path d="M0 367L12.5 376.3C25 385.7 50 404.3 75 405C100 405.7 125 388.3 150 385.7C175 383 200 395 225 395.2C250 395.3 275 383.7 300 388.2C325 392.7 350 413.3 375 418.8C400 424.3 425 414.7 450 410.2C475 405.7 500 406.3 525 410C550 413.7 575 420.3 600 419.3C625 418.3 650 409.7 675 411.2C700 412.7 725 424.3 750 419.3C775 414.3 800 392.7 825 383.3C850 374 875 377 887.5 378.5L900 380L900 601L887.5 601C875 601 850 601 825 601C800 601 775 601 750 601C725 601 700 601 675 601C650 601 625 601 600 601C575 601 550 601 525 601C500 601 475 601 450 601C425 601 400 601 375 601C350 601 325 601 300 601C275 601 250 601 225 601C200 601 175 601 150 601C125 601 100 601 75 601C50 601 25 601 12.5 601L0 601Z" fill="#36303e"></path><path d="M0 468L12.5 465.3C25 462.7 50 457.3 75 458.7C100 460 125 468 150 466.8C175 465.7 200 455.3 225 451.7C250 448 275 451 300 451.5C325 452 350 450 375 451.8C400 453.7 425 459.3 450 465.5C475 471.7 500 478.3 525 474.7C550 471 575 457 600 452.8C625 448.7 650 454.3 675 459.7C700 465 725 470 750 465.2C775 460.3 800 445.7 825 439.2C850 432.7 875 434.3 887.5 435.2L900 436L900 601L887.5 601C875 601 850 601 825 601C800 601 775 601 750 601C725 601 700 601 675 601C650 601 625 601 600 601C575 601 550 601 525 601C500 601 475 601 450 601C425 601 400 601 375 601C350 601 325 601 300 601C275 601 250 601 225 601C200 601 175 601 150 601C125 601 100 601 75 601C50 601 25 601 12.5 601L0 601Z" fill="#684c59"></path><path d="M0 482L12.5 486.2C25 490.3 50 498.7 75 496C100 493.3 125 479.7 150 481.2C175 482.7 200 499.3 225 499.2C250 499 275 482 300 481.5C325 481 350 497 375 499.3C400 501.7 425 490.3 450 483.8C475 477.3 500 475.7 525 476.3C550 477 575 480 600 479C625 478 650 473 675 474.5C700 476 725 484 750 492C775 500 800 508 825 511.3C850 514.7 875 513.3 887.5 512.7L900 512L900 601L887.5 601C875 601 850 601 825 601C800 601 775 601 750 601C725 601 700 601 675 601C650 601 625 601 600 601C575 601 550 601 525 601C500 601 475 601 450 601C425 601 400 601 375 601C350 601 325 601 300 601C275 601 250 601 225 601C200 601 175 601 150 601C125 601 100 601 75 601C50 601 25 601 12.5 601L0 601Z" fill="#996e69"></path><path d="M0 551L12.5 551.2C25 551.3 50 551.7 75 552.8C100 554 125 556 150 553.5C175 551 200 544 225 541C250 538 275 539 300 541.3C325 543.7 350 547.3 375 550.3C400 553.3 425 555.7 450 554.5C475 553.3 500 548.7 525 544.5C550 540.3 575 536.7 600 531.8C625 527 650 521 675 523.7C700 526.3 725 537.7 750 541.2C775 544.7 800 540.3 825 536.2C850 532 875 528 887.5 526L900 524L900 601L887.5 601C875 601 850 601 825 601C800 601 775 601 750 601C725 601 700 601 675 601C650 601 625 601 600 601C575 601 550 601 525 601C500 601 475 601 450 601C425 601 400 601 375 601C350 601 325 601 300 601C275 601 250 601 225 601C200 601 175 601 150 601C125 601 100 601 75 601C50 601 25 601 12.5 601L0 601Z" fill="#bb9978"></path></svg>